<?xml version="1.0" standalone="no"?>
<!DOCTYPE svg PUBLIC "-//W3C//DTD SVG 20010904//EN"
 "http://www.w3.org/TR/2001/REC-SVG-20010904/DTD/svg10.dtd">
<svg version="1.0" xmlns="http://www.w3.org/2000/svg"
 width="1950.000000pt" height="1820.000000pt" viewBox="0 0 1950.000000 1820.000000"
 preserveAspectRatio="xMidYMid meet">

<g transform="translate(0.000000,1820.000000) scale(0.100000,-0.100000)"
fill="#000000" stroke="none">
<path d="M8855 17949 c-439 -20 -1022 -71 -1435 -125 -866 -113 -2028 -351
-2855 -586 -339 -96 -521 -154 -1250 -402 -1352 -459 -1472 -507 -2485 -993
-206 -99 -422 -203 -481 -231 -111 -53 -129 -72 -129 -133 0 -26 283 -638
1750 -3789 112 -239 213 -458 225 -485 23 -52 54 -75 98 -75 13 0 155 54 317
121 324 133 750 301 1048 414 l192 73 0 -344 0 -343 -78 35 c-308 142 -322
145 -371 97 -25 -26 -30 -49 -80 -338 -29 -170 -63 -364 -76 -430 -13 -66 -35
-198 -51 -293 l-28 -173 -25 5 c-14 3 -201 35 -414 71 -388 66 -389 66 -425
48 -28 -13 -40 -28 -51 -58 l-13 -40 262 -670 c144 -368 273 -697 285 -731
l23 -60 -400 -159 c-294 -117 -405 -165 -419 -183 -20 -26 -26 -91 -10 -120 5
-9 252 -183 549 -387 l541 -370 -52 -17 c-29 -9 -153 -49 -276 -89 -254 -81
-271 -91 -271 -162 0 -28 7 -53 18 -66 9 -11 242 -172 517 -356 275 -185 501
-339 502 -343 1 -4 -161 -114 -361 -244 -247 -162 -366 -246 -374 -263 -16
-36 -15 -86 3 -112 10 -14 197 -99 557 -253 299 -127 547 -235 551 -240 5 -4
-158 -147 -362 -319 -203 -171 -377 -321 -385 -333 -32 -45 -14 -122 34 -148
10 -6 324 -55 697 -110 373 -55 684 -101 690 -103 8 -1 -49 -136 -148 -352
-164 -357 -177 -394 -150 -444 7 -12 27 -29 45 -36 28 -12 79 -8 436 36 222
27 405 48 406 46 2 -2 -8 -282 -22 -594 l-7 -172 31 -30 c22 -22 40 -31 64
-31 18 0 192 50 387 110 194 61 355 110 357 110 2 0 4 -183 4 -407 0 -256 4
-422 11 -446 11 -42 56 -77 99 -77 32 0 47 9 378 219 150 96 275 171 278 168
3 -3 50 -173 103 -379 54 -205 104 -385 111 -400 22 -48 70 -58 264 -58 95 0
193 -3 218 -6 l44 -6 -22 -197 c-13 -108 -20 -206 -17 -219 3 -13 51 -85 107
-161 55 -76 129 -176 163 -222 136 -186 246 -325 266 -336 12 -7 33 -12 47
-13 14 0 390 112 836 250 l811 250 124 -34 c68 -19 412 -132 765 -250 352
-119 652 -216 666 -216 15 0 34 3 43 6 9 4 75 77 147 163 73 86 164 190 203
232 40 41 90 102 112 135 23 33 49 66 59 74 9 8 25 33 35 55 16 34 19 67 19
216 l0 176 201 6 c153 4 206 9 223 21 17 10 77 141 215 463 106 246 195 451
199 454 4 3 147 -52 317 -122 171 -71 324 -129 341 -129 40 0 80 31 92 73 6
17 13 142 16 277 4 135 9 295 12 356 l6 110 406 -143 c236 -83 420 -143 441
-143 48 0 78 23 90 68 9 31 -3 100 -73 445 -46 224 -83 407 -82 407 0 0 197
-50 436 -110 402 -101 436 -108 466 -95 40 17 64 51 64 91 0 20 -69 192 -175
436 -96 222 -171 404 -167 405 4 1 308 27 676 58 483 41 678 61 699 71 40 21
61 75 47 120 -8 24 -107 127 -351 367 l-340 334 448 199 448 200 15 41 c25 73
17 81 -374 404 -196 161 -356 296 -356 299 0 3 240 190 534 416 577 442 580
444 560 516 -15 53 -56 72 -195 93 -68 10 -132 21 -141 24 -13 5 129 114 535
412 602 442 601 441 577 514 -7 20 -23 43 -37 52 -14 9 -248 74 -521 144 -274
70 -516 132 -539 138 l-43 12 397 792 c395 792 396 793 384 830 -15 44 -53 77
-90 77 -14 0 -234 -39 -489 -86 -255 -47 -465 -85 -467 -83 -2 2 -31 263 -65
579 -34 316 -66 592 -71 613 -11 40 -37 63 -85 73 -24 4 -69 -14 -243 -101
-117 -58 -216 -103 -219 -100 -6 6 -123 607 -120 616 4 8 685 -205 1264 -396
260 -85 483 -155 497 -155 14 0 37 10 51 23 33 28 2026 4234 2026 4274 0 64
-27 85 -201 158 -797 332 -1647 649 -2749 1027 -1288 441 -1878 610 -2950 842
-968 210 -1986 340 -3015 386 -257 11 -1239 11 -1500 -1z m1365 -79 c1542 -56
3046 -303 4655 -766 457 -132 1835 -597 2625 -887 674 -247 1670 -642 1686
-669 6 -9 -1969 -4192 -1990 -4215 -9 -10 -107 19 -446 132 -463 153 -1391
445 -1416 445 -10 0 -14 -6 -10 -17 3 -10 40 -200 82 -423 42 -223 80 -409 84
-413 4 -5 116 46 249 112 132 67 249 121 260 121 24 0 18 45 91 -650 33 -316
63 -586 66 -599 5 -23 7 -23 66 -17 33 4 264 45 512 91 300 57 454 81 460 75
7 -7 -127 -286 -403 -838 -275 -552 -408 -828 -399 -830 7 -2 272 -69 588
-150 505 -130 575 -150 575 -167 0 -13 -180 -150 -622 -474 -342 -251 -621
-460 -619 -466 1 -5 104 -26 229 -45 124 -19 231 -40 236 -45 6 -6 7 -15 3
-21 -4 -6 -261 -206 -572 -444 -311 -238 -569 -436 -573 -440 -5 -4 108 -104
250 -221 552 -455 545 -449 533 -464 -6 -7 -221 -106 -478 -220 -257 -114
-474 -211 -482 -216 -11 -6 77 -98 363 -380 232 -228 377 -379 375 -388 -3
-14 -109 -25 -731 -77 -400 -33 -729 -63 -732 -65 -2 -3 84 -209 191 -458 139
-319 193 -456 186 -463 -8 -8 -153 25 -494 110 -265 66 -484 119 -486 117 -2
-2 37 -205 87 -452 50 -246 91 -458 91 -470 0 -13 -5 -23 -12 -23 -6 0 -216
72 -466 160 -250 89 -457 159 -459 156 -3 -2 -11 -190 -19 -417 -7 -227 -18
-417 -23 -422 -5 -5 -153 51 -351 133 -188 77 -347 139 -352 138 -5 -2 -101
-217 -213 -478 l-203 -475 -224 -8 c-123 -4 -229 -10 -235 -12 -10 -3 -13 -57
-13 -224 0 -145 -4 -222 -11 -226 -6 -4 -36 -41 -67 -84 -30 -42 -86 -107
-122 -146 -37 -38 -124 -139 -194 -223 -70 -83 -129 -152 -131 -152 -2 0 -286
95 -632 211 -614 206 -826 273 -903 285 -31 5 -177 -37 -855 -246 -450 -138
-821 -248 -825 -243 -23 26 -230 301 -277 368 -15 22 -69 96 -120 164 -62 83
-93 133 -93 150 0 14 11 123 25 241 14 118 25 218 25 221 0 3 -122 9 -272 13
-149 3 -273 8 -275 10 -2 2 -56 201 -119 442 -63 240 -115 438 -117 439 -1 1
-161 -99 -354 -222 -194 -123 -357 -221 -363 -218 -6 4 -10 172 -10 481 0 355
-3 474 -12 474 -6 0 -193 -57 -416 -126 -222 -69 -408 -122 -413 -117 -5 5 -4
103 2 218 5 116 13 301 17 413 l7 202 -23 0 c-13 0 -208 -23 -434 -50 -226
-28 -419 -50 -429 -50 -12 0 -19 7 -19 18 0 9 81 193 179 407 153 332 177 391
163 397 -9 4 -341 54 -737 113 -396 58 -724 110 -729 115 -14 14 -3 25 444
400 217 182 396 334 397 338 2 4 -268 122 -600 264 -442 188 -602 260 -602
272 0 10 148 114 405 282 223 146 406 269 408 273 1 4 -248 175 -553 380 -391
262 -555 378 -553 389 2 11 101 47 350 126 192 61 348 113 348 116 -1 3 -271
189 -600 415 -330 225 -600 415 -600 422 0 17 6 20 457 199 222 87 403 163
403 169 0 5 -131 343 -290 751 -160 408 -290 749 -290 758 0 10 8 16 22 16 11
0 212 -32 446 -72 325 -54 426 -68 431 -59 5 7 22 97 40 199 17 103 38 221 46
262 8 41 42 235 76 430 33 195 65 359 70 364 6 7 345 -138 472 -201 4 -2 7
205 7 461 0 376 -3 466 -13 466 -32 0 -883 -330 -1395 -542 -134 -55 -245 -98
-247 -96 -3 3 -173 366 -305 653 -48 105 -444 955 -880 1890 -436 935 -795
1709 -797 1720 -5 22 12 31 862 435 736 350 925 423 2230 866 655 223 809 272
1145 369 788 226 1875 455 2730 574 929 130 2002 185 2950 151z"/>
<path d="M8860 17563 c-47 -2 -200 -10 -340 -18 -2087 -125 -4145 -625 -6230
-1515 -611 -261 -1390 -630 -1435 -679 -25 -28 -25 -80 0 -117 11 -16 369
-803 796 -1749 466 -1031 789 -1734 806 -1754 21 -25 37 -34 58 -34 17 0 325
95 685 211 2183 702 3262 987 4460 1176 672 106 1218 153 1880 163 1910 27
3955 -339 6337 -1133 389 -130 892 -308 945 -335 44 -22 86 -19 111 9 8 9 376
799 817 1755 890 1928 823 1764 752 1844 -32 36 -70 56 -275 147 -2758 1232
-5429 1907 -8017 2026 -190 9 -1125 11 -1350 3z m1485 -212 c316 -20 599 -42
845 -67 1997 -200 4084 -737 6090 -1569 293 -122 1015 -437 1028 -450 1 -1
-327 -715 -729 -1586 -402 -871 -739 -1603 -749 -1625 l-18 -42 -179 65 c-272
98 -885 304 -1203 403 -1872 585 -3503 892 -5140 970 -278 13 -1001 13 -1245
0 -865 -47 -1740 -179 -2725 -410 -873 -206 -1777 -472 -3505 -1034 l-230 -74
-16 36 c-9 21 -346 766 -748 1656 -402 891 -730 1621 -728 1622 7 7 565 271
751 356 2036 924 4028 1487 5976 1688 319 33 595 52 1055 74 150 7 1309 -3
1470 -13z"/>
<path d="M9780 16905 c-14 -8 -56 -24 -93 -35 -91 -28 -94 -34 -78 -202 20
-213 27 -228 124 -237 11 -1 8 -625 -3 -706 -7 -46 -23 -95 -47 -142 -38 -76
-38 -83 -1 -135 10 -14 9 -21 -10 -41 -30 -32 -28 -71 7 -115 16 -20 35 -55
41 -77 16 -52 23 -470 13 -680 l-8 -160 -26 -3 c-15 -2 -35 -12 -44 -22 -17
-19 -36 -123 -50 -270 -6 -67 -5 -78 14 -102 12 -14 34 -29 50 -33 16 -3 50
-19 75 -36 50 -31 78 -35 123 -18 41 16 139 12 258 -11 118 -22 198 -25 295
-9 53 8 77 7 130 -6 l65 -17 59 31 c32 17 66 31 75 31 24 0 54 34 53 62 0 13
-5 49 -12 81 -9 45 -9 100 0 240 14 227 27 322 51 369 32 62 26 82 -37 129
-67 50 -84 85 -84 178 0 81 -12 114 -47 130 -35 16 -49 14 -78 -12 -23 -19
-28 -34 -36 -106 -12 -109 -23 -130 -87 -164 -66 -36 -75 -58 -56 -128 16 -61
18 -288 5 -408 -11 -88 -23 -101 -95 -101 -63 0 -75 8 -85 51 -8 37 13 879 24
959 4 29 19 67 36 92 34 51 36 76 9 111 -11 14 -20 27 -20 30 0 2 9 14 20 27
25 29 26 74 2 108 -10 15 -22 36 -26 47 -9 23 -7 382 3 645 l6 175 34 -3 c51
-5 79 5 95 36 18 36 66 268 66 320 0 45 -19 65 -75 77 -16 4 -56 19 -88 33
-57 25 -60 25 -140 12 -101 -18 -226 -15 -292 5 -62 18 -83 18 -115 0z m117
-31 c45 -13 80 -15 182 -9 193 10 201 9 281 -20 93 -33 100 -39 100 -80 0 -50
-49 -267 -66 -292 -16 -26 -55 -30 -73 -9 -7 8 -14 32 -15 53 -2 21 -4 41 -5
46 -1 4 -7 7 -15 7 -19 0 -24 -96 -32 -560 l-6 -395 26 -48 c31 -57 32 -74 6
-107 -25 -32 -25 -44 2 -81 l22 -30 -33 -60 c-31 -57 -34 -68 -42 -202 -4 -77
-11 -308 -15 -512 l-7 -371 32 -27 c61 -51 177 -31 200 35 19 53 27 376 11
459 -16 82 -11 94 45 124 54 29 75 62 86 141 19 122 21 129 54 132 41 5 55
-19 55 -98 0 -105 32 -169 102 -206 38 -20 44 -53 19 -101 -24 -47 -37 -146
-51 -378 -7 -116 -7 -187 0 -224 15 -79 13 -111 -7 -118 -10 -3 -48 -19 -84
-35 -66 -30 -66 -30 -120 -14 -46 14 -66 15 -133 5 -91 -13 -217 -7 -326 16
-73 16 -179 16 -258 -1 -26 -5 -41 -1 -70 19 -20 14 -54 31 -76 38 -21 8 -43
23 -48 35 -9 20 14 271 28 308 6 15 20 21 69 28 19 3 20 14 28 203 4 110 6
297 3 415 -5 232 -14 285 -60 345 -31 40 -33 66 -6 90 25 23 25 36 1 81 -21
38 -19 53 10 94 46 68 52 115 57 493 2 197 1 369 -2 383 -5 20 -12 24 -45 24
-22 0 -44 6 -51 15 -14 16 -42 240 -38 295 3 38 6 40 118 84 78 30 78 30 147
10z"/>
<path d="M9791 16846 c-19 -11 -57 -25 -85 -31 -45 -11 -51 -15 -49 -36 5 -68
24 -247 29 -266 3 -15 12 -23 24 -23 18 0 20 7 20 69 0 46 5 72 14 80 18 15
43 5 50 -22 10 -37 6 -776 -4 -877 -8 -72 -18 -110 -41 -157 -16 -35 -35 -63
-41 -63 -5 0 4 -16 21 -35 39 -45 39 -69 1 -104 l-30 -27 25 -24 c13 -12 32
-44 42 -69 16 -42 18 -92 18 -566 l0 -520 -22 -3 c-20 -3 -22 2 -28 72 -6 63
-10 76 -25 76 -18 0 -29 -58 -46 -246 l-7 -71 40 -6 c22 -4 58 -20 81 -37 39
-28 43 -29 69 -15 40 21 147 19 277 -6 94 -18 128 -20 221 -14 151 11 198 9
233 -9 20 -10 33 -12 37 -6 11 18 83 50 111 50 23 0 25 3 20 23 -18 58 -23
155 -15 297 16 282 29 359 76 440 1 3 -16 14 -38 25 -77 36 -109 105 -109 233
0 63 -2 72 -19 72 -16 0 -19 -11 -25 -80 -11 -129 -44 -187 -119 -205 -15 -4
-29 -10 -31 -14 -2 -3 2 -31 11 -61 12 -44 14 -95 9 -257 -6 -231 -16 -271
-71 -297 -41 -20 -125 -21 -170 -2 -69 29 -69 26 -61 414 13 642 23 734 79
781 15 12 14 16 -13 41 -38 35 -38 64 0 101 l29 30 -24 35 c-13 19 -27 56 -31
82 -7 48 1 577 13 840 6 146 14 172 49 172 8 0 23 -9 35 -21 17 -17 20 -30 17
-77 -3 -51 -1 -57 17 -57 18 0 24 17 52 150 18 83 31 155 29 161 -2 6 -23 14
-46 17 -23 3 -64 17 -90 30 -46 24 -49 24 -101 10 -69 -18 -276 -13 -334 8
-37 14 -43 14 -74 -5z"/>
<path d="M7942 16810 c-39 -18 -63 -20 -220 -19 -188 1 -172 4 -382 -63 -51
-16 -94 -21 -200 -22 -129 -2 -137 -3 -170 -28 -19 -14 -58 -37 -86 -51 -52
-26 -64 -41 -64 -79 0 -39 92 -313 112 -335 13 -14 35 -23 62 -25 l41 -3 47
-300 c58 -358 62 -442 28 -536 -26 -73 -28 -63 25 -135 7 -10 6 -20 -3 -34
-20 -33 -14 -67 22 -117 65 -92 79 -144 141 -542 48 -302 48 -310 8 -311 -6 0
-21 -12 -33 -27 -21 -27 -22 -33 -15 -193 9 -204 16 -223 83 -243 27 -9 63
-22 80 -31 42 -22 68 -20 111 7 33 20 52 22 231 28 187 5 199 7 290 38 87 30
102 33 175 27 79 -6 81 -5 140 31 33 20 68 43 78 51 21 19 22 63 1 105 -24 45
-67 475 -59 587 13 188 15 173 -30 193 -109 49 -109 49 -127 107 -9 30 -20 77
-23 104 -8 56 -40 96 -80 96 -22 0 -25 4 -25 33 0 18 -9 50 -20 72 -11 22 -20
43 -20 48 0 5 9 20 20 34 27 35 25 56 -10 96 -27 31 -29 37 -19 66 11 30 9 66
-7 119 -4 16 -2 22 8 22 9 0 27 9 42 21 25 19 26 25 26 110 0 113 15 151 69
179 22 11 48 32 57 45 16 24 16 31 0 103 -9 42 -25 176 -37 296 -19 205 -20
289 -4 377 8 44 -4 56 -94 87 -95 34 -120 35 -169 12z m166 -41 c67 -24 84
-48 63 -87 -6 -12 -11 -47 -11 -78 0 -91 39 -482 55 -560 9 -39 13 -78 9 -87
-3 -9 -27 -30 -54 -47 -63 -40 -80 -82 -80 -195 0 -73 -3 -86 -19 -95 -45 -24
-67 -1 -86 89 -21 102 -44 135 -116 168 -64 29 -80 54 -60 91 15 29 14 139 -4
300 -19 165 -27 194 -66 227 -47 39 -131 28 -163 -20 -25 -39 -20 -126 34
-542 60 -462 65 -483 116 -483 33 0 38 29 14 84 -24 56 -26 106 -5 146 29 55
127 93 138 53 3 -10 8 -30 11 -45 4 -18 25 -42 60 -67 50 -37 86 -89 86 -125
0 -9 -5 -36 -12 -60 -11 -44 -11 -45 20 -74 35 -33 35 -50 -1 -89 l-20 -23 26
-49 c46 -83 35 -137 -45 -217 -48 -50 -50 -53 -43 -93 8 -49 -5 -71 -42 -71
-52 0 -109 46 -123 102 -8 28 -7 54 5 103 8 37 15 68 15 70 0 7 -32 35 -40 35
-21 0 -40 -34 -40 -73 0 -23 27 -249 60 -502 68 -524 63 -508 148 -513 44 -3
56 1 77 22 32 32 32 61 1 323 -17 140 -31 215 -45 248 -12 26 -21 54 -21 61 0
8 23 31 51 51 67 48 79 79 79 198 0 90 1 96 22 104 51 19 61 4 88 -129 14 -74
40 -113 86 -134 22 -9 50 -22 64 -29 27 -14 27 -16 14 -149 -10 -109 35 -554
63 -613 23 -49 11 -75 -55 -117 -58 -37 -59 -38 -138 -32 -72 6 -88 3 -174
-27 -91 -31 -103 -33 -290 -38 -179 -6 -198 -8 -233 -28 -47 -28 -67 -29 -117
-3 -22 11 -46 20 -55 20 -9 0 -26 11 -39 23 -22 22 -24 35 -31 181 -8 178 -4
200 45 211 17 4 34 13 37 21 6 16 -81 579 -104 674 -19 80 -53 159 -87 203
-30 39 -32 57 -11 97 14 27 13 31 -9 57 -33 41 -35 52 -14 112 29 87 23 188
-32 543 -28 176 -53 324 -56 330 -3 5 -23 7 -45 3 -26 -5 -45 -3 -54 5 -16 14
-105 283 -105 319 0 14 11 28 31 39 17 9 55 33 83 52 51 34 51 34 176 36 127
2 150 6 335 64 62 20 91 22 250 21 159 0 185 2 220 19 46 22 75 20 163 -11z
m-388 -289 c26 -14 37 -56 55 -210 20 -173 22 -256 5 -302 -20 -56 -4 -83 70
-115 70 -30 97 -69 107 -156 l6 -52 -24 16 c-16 11 -25 28 -27 50 -7 68 -57
87 -130 50 -42 -21 -62 -42 -85 -86 l-15 -30 -6 25 c-5 23 -17 110 -76 571
-26 210 -16 246 73 248 16 1 37 -3 47 -9z m5 -998 c-9 -9 -25 19 -24 43 0 16
2 15 15 -8 9 -16 13 -32 9 -35z m55 -399 c0 -5 -5 -15 -10 -23 -8 -12 -10 -11
-10 8 0 12 5 22 10 22 6 0 10 -3 10 -7z m270 -168 c0 -77 -18 -118 -61 -140
-66 -35 -87 -85 -55 -131 23 -32 34 -88 55 -282 24 -210 26 -263 9 -280 -17
-17 -93 -15 -107 2 -11 14 -101 654 -101 723 l0 32 46 -24 c98 -52 176 -14
152 73 -8 30 -6 38 18 63 15 16 31 29 36 29 4 0 8 -29 8 -65z"/>
<path d="M7958 16755 c-46 -24 -54 -25 -230 -23 l-183 2 -110 -36 c-136 -44
-248 -62 -337 -53 -65 6 -69 5 -105 -24 -21 -17 -56 -37 -78 -44 -22 -8 -39
-21 -39 -28 3 -27 96 -309 102 -309 4 0 13 4 21 9 12 7 12 21 4 73 -7 39 -7
70 -1 81 9 18 43 23 52 9 3 -5 35 -197 71 -428 56 -354 66 -435 63 -519 -2
-73 -8 -110 -22 -138 l-19 -39 31 -25 c37 -29 42 -65 13 -102 -19 -25 -19 -25
10 -60 34 -43 74 -139 94 -224 25 -111 137 -856 131 -872 -8 -21 -44 -19 -49
3 -3 9 -8 35 -11 57 -14 86 -17 95 -37 95 -17 0 -19 -8 -18 -92 1 -51 4 -131
7 -177 l7 -84 47 -12 c25 -6 58 -19 72 -29 26 -16 28 -16 53 4 43 33 95 41
261 38 l157 -2 112 37 c114 38 180 45 240 28 24 -7 35 -6 44 5 7 9 31 26 54
40 l42 24 -18 38 c-20 39 -54 330 -66 552 -4 94 -3 122 11 154 9 21 16 40 16
41 0 2 -24 11 -52 20 -29 10 -64 27 -77 39 -32 28 -58 89 -66 156 -9 77 -14
90 -34 90 -14 0 -16 -9 -13 -70 8 -139 -16 -198 -99 -240 l-38 -20 18 -33 c26
-45 38 -104 62 -322 33 -297 24 -326 -98 -333 -57 -3 -72 -1 -94 17 -15 11
-29 31 -33 45 -12 49 -126 952 -126 1001 0 62 20 85 72 85 39 0 68 -24 68 -58
0 -12 -7 -49 -17 -82 -28 -103 9 -170 97 -170 l31 0 -21 22 c-31 34 -25 59 31
113 28 28 57 62 65 77 30 57 10 130 -46 165 l-32 20 52 38 51 38 -55 31 -54
31 29 33 c55 61 33 128 -62 193 -60 41 -61 42 -56 81 5 36 4 38 -16 32 -37
-12 -67 -36 -83 -65 -19 -38 -19 -40 17 -121 29 -65 29 -71 15 -94 -35 -52
-106 -40 -132 23 -20 46 -124 831 -124 930 0 62 3 75 25 102 32 37 84 55 142
48 87 -9 108 -50 134 -255 23 -187 25 -302 5 -341 l-15 -27 47 -13 c84 -22
134 -96 149 -221 5 -44 9 -50 28 -50 23 0 23 2 18 78 -8 120 20 183 100 224
23 11 43 21 44 22 1 1 -5 22 -13 46 -16 47 -63 490 -64 598 0 37 6 75 15 92
15 30 15 30 -13 30 -16 0 -51 11 -78 25 -27 14 -49 25 -49 24 0 0 -21 -11 -47
-24z"/>
<path d="M12104 16750 c-199 -30 -364 -166 -403 -330 -6 -25 -31 -223 -56
-440 -25 -217 -52 -419 -61 -448 -8 -31 -29 -69 -49 -91 -38 -42 -44 -77 -20
-115 14 -21 13 -24 -10 -46 -31 -30 -31 -54 0 -122 18 -38 25 -70 25 -115 0
-48 -67 -679 -94 -878 -13 -96 46 -228 138 -312 108 -97 230 -141 313 -113 41
15 145 -3 184 -30 50 -36 90 -42 167 -26 204 42 355 199 406 421 8 39 38 192
66 340 78 420 96 481 159 539 34 32 38 59 19 113 -11 31 -10 35 14 56 38 33
41 54 16 106 -35 70 -28 138 58 591 85 452 87 487 40 584 -48 99 -163 188
-306 238 -46 16 -70 18 -146 12 -102 -7 -177 5 -257 41 -61 28 -131 37 -203
25z m186 -50 c70 -36 173 -53 275 -45 76 5 99 3 149 -15 122 -42 228 -126 273
-215 46 -90 43 -133 -42 -580 -80 -426 -91 -525 -61 -583 21 -42 20 -65 -5
-88 -36 -32 -42 -53 -25 -79 23 -35 20 -60 -13 -97 -67 -77 -77 -113 -161
-555 -33 -177 -68 -346 -77 -375 -56 -192 -200 -327 -382 -358 -62 -11 -64
-11 -135 24 -77 38 -133 46 -238 31 -53 -7 -63 -5 -133 28 -85 41 -179 126
-213 192 -45 91 -45 108 8 571 28 236 50 456 50 489 0 43 -7 75 -25 113 -32
68 -31 79 2 114 27 29 28 29 10 59 -22 40 -22 62 4 85 27 25 56 81 69 136 5
23 30 219 55 433 50 432 50 432 76 492 78 181 377 306 539 223z"/>
<path d="M12068 16684 c-152 -36 -282 -151 -311 -275 -4 -14 -27 -202 -52
-417 -25 -215 -50 -415 -56 -444 -15 -68 -41 -121 -75 -147 l-26 -21 26 -31
c14 -17 26 -39 26 -49 0 -17 -36 -54 -61 -62 -6 -2 2 -25 17 -52 43 -77 42
-130 -15 -620 -31 -266 -49 -452 -45 -475 23 -124 143 -249 285 -296 46 -16
52 -16 85 0 59 28 214 -2 253 -49 36 -44 214 9 310 91 57 48 114 137 140 216
11 34 48 208 81 387 84 448 105 519 173 583 l30 28 -22 22 c-37 40 -23 93 34
124 15 9 15 12 -5 46 -17 29 -21 52 -21 112 0 86 -1 78 87 541 35 188 64 368
64 400 0 78 -32 145 -97 206 -85 78 -247 148 -299 128 -62 -24 -231 0 -317 45
-56 29 -118 32 -209 9z m399 -223 c47 -22 63 -45 63 -91 0 -35 -125 -821 -142
-890 -16 -65 -53 -134 -88 -163 -23 -20 -27 -28 -17 -34 25 -15 49 -61 42 -82
-3 -11 -21 -29 -40 -41 l-34 -21 22 -37 c38 -64 29 -185 -48 -657 -37 -225
-74 -423 -82 -440 -23 -43 -42 -54 -96 -55 -96 0 -147 41 -147 120 0 60 105
794 126 885 20 82 56 160 83 177 19 12 19 13 -5 41 -33 39 -32 89 2 116 14 11
29 21 34 23 6 2 0 23 -12 48 -18 36 -22 61 -21 130 1 83 103 839 123 912 16
57 50 78 129 78 43 0 80 -7 108 -19z"/>
<path d="M12283 16428 c-11 -13 -23 -32 -27 -43 -3 -11 -31 -193 -62 -405 -61
-422 -70 -554 -41 -607 24 -45 22 -62 -15 -100 l-32 -33 22 -46 23 -46 -20
-31 c-73 -116 -78 -134 -146 -606 -57 -396 -63 -465 -42 -492 33 -42 122 -54
156 -20 28 28 33 51 101 476 75 464 81 532 51 599 -27 62 -27 82 3 101 33 22
39 41 21 75 -22 42 -19 57 20 103 20 24 43 67 54 102 10 33 49 250 87 482 52
322 66 429 58 450 -13 38 -66 63 -135 63 -45 0 -59 -4 -76 -22z m157 -21 c17
-8 26 -22 28 -42 3 -31 -120 -807 -139 -879 -15 -57 -36 -94 -75 -139 -39 -43
-41 -51 -15 -93 l19 -32 -29 -28 c-35 -33 -36 -55 -8 -120 19 -42 21 -59 15
-144 -7 -117 -129 -868 -145 -898 -9 -17 -21 -22 -52 -22 -64 0 -79 13 -79 69
0 63 105 790 126 875 9 37 27 81 40 99 13 18 31 47 41 65 17 33 17 35 -6 74
l-23 41 31 29 c36 34 40 68 14 119 -29 55 -21 169 41 597 58 403 62 422 80
434 18 12 109 9 136 -5z"/>
<path d="M5872 16480 c-65 -40 -154 -63 -269 -69 -94 -6 -117 -10 -140 -29
-16 -12 -53 -36 -83 -54 -54 -33 -57 -33 -180 -33 -118 0 -128 -2 -170 -27
-74 -44 -196 -80 -298 -88 -74 -5 -99 -11 -120 -29 -15 -12 -51 -37 -79 -57
-49 -32 -53 -38 -53 -73 0 -43 104 -290 139 -328 15 -17 30 -23 64 -23 l44 0
92 -305 c126 -416 133 -454 105 -578 -5 -23 0 -33 32 -62 34 -32 36 -37 26
-60 -20 -43 -14 -66 28 -104 58 -53 96 -147 200 -495 87 -290 92 -311 75 -320
-65 -38 -66 -51 -26 -264 34 -186 38 -191 143 -203 40 -5 88 -12 106 -15 25
-5 41 -1 71 20 59 41 147 68 244 74 76 4 90 8 112 30 14 13 25 28 25 33 0 4
15 17 34 28 40 25 105 27 166 6 43 -15 44 -15 114 20 83 40 155 56 242 53 60
-3 63 -2 106 38 25 23 56 47 69 55 31 16 48 39 49 65 0 24 -82 270 -105 315
-18 34 -43 49 -84 49 -17 0 -31 2 -31 5 0 3 -32 148 -71 323 -83 370 -92 449
-60 514 28 58 27 86 -5 119 -24 25 -25 30 -14 62 17 46 6 83 -29 102 -45 23
-69 61 -96 149 -24 82 -155 663 -155 691 0 8 6 15 14 15 7 0 25 9 40 21 24 19
26 26 26 92 -1 40 -5 119 -10 177 -8 95 -12 107 -35 128 -14 12 -39 22 -54 22
-15 0 -50 7 -77 15 -65 20 -83 19 -122 -5z m126 -25 c31 -8 69 -17 84 -20 37
-7 46 -42 54 -211 l7 -144 -41 -17 c-33 -12 -42 -21 -42 -40 0 -28 132 -624
156 -703 25 -83 49 -124 95 -160 42 -34 43 -37 24 -106 -5 -14 2 -31 19 -51
31 -37 32 -47 5 -109 -18 -40 -21 -60 -16 -123 5 -74 137 -692 157 -740 9 -20
15 -22 45 -17 26 5 38 2 52 -13 19 -21 113 -282 113 -313 0 -9 -17 -29 -37
-44 -21 -15 -53 -42 -71 -58 -30 -28 -39 -31 -89 -29 -74 4 -183 -20 -243 -53
-38 -21 -57 -25 -87 -20 -159 24 -176 20 -248 -53 -35 -37 -44 -41 -90 -41
-81 0 -182 -27 -254 -66 -62 -35 -68 -36 -109 -25 -23 6 -58 11 -76 11 -85 0
-89 6 -125 212 -28 159 -28 164 14 189 19 12 35 29 35 39 0 30 -191 652 -219
715 -15 33 -46 79 -69 103 -48 50 -46 43 -31 93 12 37 11 40 -25 80 -23 24
-35 47 -32 56 15 38 17 97 6 164 -11 66 -200 715 -216 740 -3 6 -23 7 -48 4
-33 -5 -45 -3 -59 12 -25 28 -127 264 -127 295 0 21 13 36 59 71 81 62 92 67
154 67 76 0 198 33 294 80 l81 40 115 -6 c113 -5 115 -5 158 24 148 97 137 92
219 92 88 0 206 27 277 64 57 30 58 30 131 11z"/>
<path d="M5900 16430 c-47 -38 -177 -72 -290 -77 -91 -5 -108 -8 -130 -28 -14
-13 -44 -32 -67 -44 -24 -12 -43 -25 -43 -29 0 -4 25 -78 56 -165 52 -144 59
-157 78 -151 12 4 22 7 22 8 1 0 -5 38 -14 84 -16 85 -11 111 21 99 10 -4 53
-161 132 -477 101 -404 117 -480 113 -531 -3 -39 -11 -69 -25 -87 -48 -64
-195 -102 -261 -68 -17 9 -43 36 -58 61 -31 54 -276 935 -272 979 4 36 31 56
55 40 9 -6 25 -42 36 -80 10 -38 20 -70 22 -72 1 -1 10 0 19 4 14 5 16 28 16
176 l0 169 -52 -6 c-29 -3 -75 -2 -103 4 -42 8 -53 6 -75 -9 -77 -55 -259
-110 -365 -110 -52 -1 -64 -4 -88 -29 -15 -15 -43 -36 -62 -47 -19 -10 -35
-21 -35 -25 0 -4 29 -71 64 -150 57 -129 67 -144 87 -141 13 1 24 4 25 5 2 1
-7 35 -18 75 -17 56 -19 75 -9 85 29 29 46 -11 173 -436 140 -469 161 -565
136 -640 -13 -40 -13 -47 -1 -47 21 0 73 -55 73 -78 0 -11 -9 -30 -19 -44
l-19 -24 34 -28 c19 -15 50 -58 69 -97 35 -69 295 -905 295 -949 0 -16 -5 -21
-22 -18 -19 2 -28 18 -49 78 -20 58 -31 75 -45 75 -23 0 -23 4 12 -192 l27
-153 54 0 c29 0 70 -7 89 -15 35 -14 38 -14 65 9 56 48 225 94 298 81 32 -5
38 -3 54 24 10 17 32 40 50 52 18 13 34 24 36 26 4 3 -117 302 -128 315 -4 4
-12 3 -20 -1 -11 -7 -11 -20 4 -81 17 -70 17 -74 0 -86 -28 -21 -52 0 -69 58
-8 29 -64 236 -125 459 -118 433 -128 492 -94 550 25 42 95 73 173 77 83 4
116 -15 153 -89 40 -78 262 -977 246 -995 -24 -29 -39 -14 -60 59 -11 39 -23
78 -25 85 -2 8 -10 12 -17 9 -13 -4 -14 -116 -2 -264 l7 -83 44 0 c24 0 63 -7
88 -15 43 -15 46 -15 82 10 54 37 137 58 231 60 77 1 83 3 114 32 17 18 47 39
65 48 l33 16 -54 155 c-30 86 -55 158 -55 159 0 2 -9 1 -20 -2 -24 -6 -24 -5
-4 -89 17 -74 14 -94 -15 -94 -13 0 -23 10 -30 33 -29 89 -193 863 -198 933
-6 80 -2 95 45 187 2 4 -3 7 -12 7 -39 0 -59 80 -31 124 14 21 13 23 -19 39
-40 19 -75 74 -105 167 -27 86 -201 871 -201 910 0 19 5 30 14 30 20 0 26 -12
46 -89 15 -59 19 -66 40 -63 13 1 25 3 26 5 1 1 -3 72 -9 158 l-11 157 -54 6
c-29 4 -67 13 -82 21 -35 18 -30 19 -60 -5z"/>
<path d="M5340 16032 c0 -112 -2 -131 -18 -145 -26 -24 -49 -21 -79 9 l-26 26
6 -44 c9 -69 205 -775 226 -816 10 -20 28 -45 39 -55 48 -44 171 -25 227 33
53 55 48 98 -49 490 -48 190 -91 356 -96 369 -9 20 -15 22 -45 17 -55 -11 -69
4 -110 116 -62 171 -75 171 -75 0z m65 -57 c26 -73 50 -95 101 -95 l42 0 86
-347 c48 -192 86 -369 86 -395 0 -58 -31 -99 -88 -116 -80 -24 -127 -10 -157
48 -8 16 -58 185 -109 375 -52 190 -98 354 -101 365 -5 14 -1 22 12 26 83 27
93 43 93 141 0 74 8 73 35 -2z"/>
<path d="M5655 14765 c-22 -8 -50 -26 -62 -40 -41 -47 -33 -102 77 -503 55
-201 105 -371 111 -378 9 -11 16 -11 41 2 41 21 67 3 97 -72 53 -132 77 -135
66 -9 -7 93 1 120 41 135 13 5 27 16 30 23 7 19 -172 730 -196 777 -40 78
-108 99 -205 65z m152 -37 c34 -38 39 -54 128 -409 47 -189 88 -352 91 -361 4
-12 -3 -22 -21 -30 -32 -14 -55 -55 -56 -100 0 -30 -1 -31 -12 -13 -7 10 -25
32 -40 48 -24 25 -33 28 -62 23 -30 -6 -36 -4 -45 16 -5 13 -50 172 -100 354
-95 352 -107 425 -72 457 27 25 62 36 118 36 40 1 55 -4 71 -21z"/>
<path d="M14117 16310 c-117 -30 -240 -125 -295 -228 -71 -133 -104 -396 -83
-671 7 -91 16 -186 21 -211 14 -68 11 -162 -5 -190 -8 -14 -14 -41 -15 -62 0
-30 6 -41 37 -66 37 -29 37 -31 25 -64 -19 -54 -15 -82 18 -113 40 -39 66 -99
95 -218 64 -268 57 -578 -17 -774 -24 -65 -63 -90 -122 -79 -47 9 -66 38 -66
101 0 68 92 415 130 489 16 32 30 67 30 77 0 9 -18 34 -40 56 -56 52 -66 93
-50 188 12 72 12 78 -7 103 -22 30 -69 40 -102 23 -11 -6 -27 -34 -37 -63 -37
-114 -72 -158 -125 -158 -39 0 -87 -19 -94 -38 -4 -9 -6 -51 -6 -92 2 -103
-114 -580 -159 -652 -43 -70 -43 -97 -3 -131 15 -12 45 -42 67 -66 41 -43 41
-43 95 -37 50 6 61 3 160 -44 291 -137 514 -118 692 60 152 152 215 381 209
760 -6 335 -7 321 18 368 31 60 29 94 -8 125 l-30 26 20 34 c23 38 16 73 -20
112 -86 93 -151 373 -150 652 0 255 26 420 70 443 73 39 190 -30 190 -111 0
-35 -87 -324 -111 -368 -10 -20 -29 -48 -40 -63 -34 -42 -28 -75 24 -123 58
-53 65 -80 44 -181 -22 -108 -22 -119 9 -143 56 -44 104 -23 134 56 46 125 74
153 162 169 68 11 73 21 73 131 1 92 4 110 63 297 62 195 85 254 123 308 36
50 23 87 -43 127 -21 12 -45 35 -55 51 -22 38 -35 43 -113 45 -57 1 -81 8
-185 57 -66 31 -145 64 -175 73 -64 20 -294 29 -353 15z m312 -35 c36 -9 125
-43 199 -77 119 -54 143 -61 200 -62 60 -1 66 -3 96 -37 17 -19 48 -48 69 -63
20 -15 37 -34 37 -43 0 -8 -16 -40 -35 -71 -22 -37 -59 -135 -102 -272 -61
-194 -68 -223 -68 -300 0 -47 -4 -90 -8 -97 -4 -6 -32 -17 -61 -23 -71 -15
-99 -42 -146 -144 -22 -46 -44 -87 -50 -91 -18 -11 -58 4 -65 24 -3 11 2 56
11 101 21 107 14 141 -42 194 -47 45 -57 83 -28 107 28 23 61 102 105 245 50
166 54 224 20 273 -29 40 -91 70 -147 71 -79 0 -115 -66 -135 -255 -17 -150
-6 -458 20 -570 33 -141 69 -240 112 -304 43 -64 47 -85 23 -119 -19 -27 -11
-55 21 -76 31 -20 31 -46 3 -104 -23 -49 -23 -40 -18 -382 5 -372 -53 -585
-200 -731 -165 -166 -389 -183 -664 -51 -86 40 -107 47 -155 45 -54 -2 -55 -1
-113 55 -32 31 -58 65 -58 75 0 9 13 41 30 70 43 76 150 509 158 642 l7 100
40 8 c97 20 114 38 185 198 11 25 22 35 42 37 41 5 52 -25 38 -106 -16 -93 -6
-134 46 -193 24 -27 44 -51 44 -53 0 -2 -13 -32 -30 -67 -16 -35 -53 -151 -81
-258 -42 -159 -50 -205 -47 -254 5 -71 31 -101 97 -112 84 -14 136 40 172 179
56 218 48 511 -21 763 -24 89 -40 121 -81 168 -32 36 -32 40 -14 117 6 22 1
33 -29 63 -40 40 -43 56 -21 108 19 45 19 103 0 232 -45 312 -22 656 56 821
47 100 154 188 269 220 64 17 242 17 319 -1z"/>
<path d="M14170 16260 c-199 -37 -316 -165 -357 -390 -25 -135 -24 -480 1
-644 20 -131 17 -213 -9 -253 -16 -24 -16 -25 24 -60 46 -39 54 -80 25 -122
-16 -22 -15 -24 8 -46 41 -38 65 -85 93 -180 74 -255 83 -554 24 -791 -38
-149 -82 -199 -177 -198 -68 0 -116 23 -137 64 -27 52 -18 132 36 340 53 198
78 272 105 302 14 14 12 18 -16 35 -69 40 -88 114 -66 256 8 53 7 59 -9 55
-11 -2 -23 -23 -35 -59 -37 -122 -95 -179 -181 -179 l-34 0 -1 -93 c-1 -78
-11 -130 -63 -336 -62 -244 -86 -318 -119 -355 -13 -15 -14 -20 -4 -24 23 -8
81 -62 87 -82 5 -16 10 -17 36 -8 42 14 82 4 187 -47 332 -163 600 -90 738
200 70 147 106 436 85 688 -13 157 -6 226 29 282 l20 33 -35 22 c-54 33 -57
92 -6 120 18 9 18 11 -8 39 -64 68 -124 241 -157 449 -13 86 -15 147 -11 312
11 355 47 450 171 450 111 -1 206 -83 206 -179 0 -34 -81 -313 -110 -378 -12
-26 -33 -61 -48 -76 l-26 -28 46 -40 c27 -23 51 -54 58 -75 13 -39 7 -118 -16
-192 -10 -36 -11 -48 -1 -54 20 -13 30 -4 47 48 49 142 103 194 202 194 35 0
39 2 32 18 -5 9 -9 49 -8 87 1 115 128 512 195 606 l19 27 -30 12 c-30 12 -90
72 -90 90 0 4 -30 8 -67 7 -64 -1 -76 3 -199 61 -73 34 -160 68 -195 77 -82
19 -202 26 -259 15z"/>
<path d="M3574 15807 c-11 -7 -37 -25 -57 -40 -43 -34 -113 -57 -172 -57 -31
0 -53 -8 -83 -29 -93 -68 -256 -133 -365 -147 -36 -4 -58 -14 -85 -39 -53 -47
-111 -75 -173 -82 -58 -6 -109 -27 -109 -44 0 -5 -27 -36 -60 -69 -37 -36 -60
-68 -60 -81 0 -12 51 -135 114 -273 154 -340 148 -323 151 -396 4 -102 5 -103
108 -115 71 -8 104 -34 152 -119 49 -88 66 -102 113 -90 26 6 41 17 51 38 12
27 11 37 -13 107 -39 116 -36 147 19 209 25 28 45 55 45 60 0 36 26 -9 79
-134 73 -174 84 -217 75 -311 l-6 -72 35 -27 c32 -24 35 -30 30 -65 -4 -32 -1
-42 17 -58 73 -58 100 -89 127 -140 38 -73 283 -654 283 -672 0 -8 -11 -24
-25 -37 -33 -30 -32 -56 5 -224 39 -177 37 -175 181 -171 l112 2 51 39 c65 49
141 79 220 87 60 6 62 7 129 77 37 39 70 82 74 96 5 18 -11 58 -66 167 -40 79
-81 148 -92 154 -11 6 -41 9 -67 7 l-47 -3 -122 310 c-161 407 -167 427 -158
520 7 73 7 73 -24 96 -27 20 -30 27 -28 71 2 46 0 50 -46 89 -26 22 -58 59
-71 82 -26 44 -140 327 -134 332 2 2 38 0 81 -5 94 -9 104 -17 161 -127 48
-92 77 -113 121 -92 50 24 58 55 35 135 -28 98 -26 142 8 190 16 21 36 45 45
53 28 23 21 63 -19 102 -55 53 -65 76 -167 359 -113 314 -113 315 -141 328
-32 16 -208 22 -232 9z m228 -46 c9 -9 60 -137 113 -286 111 -307 111 -307
165 -370 44 -51 48 -66 23 -86 -9 -8 -29 -34 -45 -58 -33 -52 -36 -100 -12
-180 8 -29 14 -67 12 -84 -3 -29 -6 -32 -38 -32 -33 0 -36 3 -71 72 -19 40
-44 82 -55 94 -27 30 -75 49 -127 49 -57 0 -71 17 -73 89 -2 42 -21 104 -77
251 -85 225 -90 236 -118 250 -26 15 -69 -11 -69 -41 0 -23 308 -816 347 -892
14 -28 48 -74 76 -104 48 -51 50 -56 48 -103 -1 -28 2 -50 7 -50 4 0 18 -9 30
-21 20 -18 22 -27 16 -83 -5 -44 -2 -79 9 -117 22 -74 283 -739 296 -752 6 -6
17 -4 32 7 33 23 64 20 86 -7 40 -51 136 -253 129 -273 -4 -10 -31 -45 -61
-78 -52 -56 -56 -59 -128 -71 -87 -15 -151 -41 -216 -89 -46 -34 -50 -35 -149
-37 -64 -2 -107 2 -114 9 -13 13 -67 244 -68 289 0 24 7 37 30 53 17 12 30 26
30 32 0 19 -289 697 -315 737 -13 22 -47 58 -75 82 -47 40 -51 47 -46 77 7 44
-1 60 -36 78 -30 16 -30 16 -24 83 4 39 2 88 -4 117 -10 44 -316 786 -361 876
-26 50 -53 64 -85 43 -13 -8 -24 -25 -24 -37 0 -22 118 -306 170 -408 16 -30
42 -68 59 -84 39 -38 39 -57 -3 -103 -65 -74 -71 -115 -31 -228 26 -75 25 -99
-6 -115 -30 -16 -54 3 -90 70 -34 65 -85 117 -122 124 -12 3 -44 8 -70 11 -40
5 -50 11 -58 32 -5 15 -8 32 -5 40 13 33 -21 129 -138 387 -69 153 -126 284
-126 291 0 7 33 47 73 88 68 70 75 75 124 80 67 8 126 34 181 80 25 21 59 39
80 42 130 21 248 66 354 134 34 23 74 41 89 41 61 0 131 24 194 64 l65 43 93
-4 c67 -4 96 -10 109 -22z m-304 -324 c18 -21 159 -398 166 -442 6 -38 -5 -77
-17 -59 -12 21 -187 475 -187 487 0 28 21 35 38 14z m-463 -469 c52 -125 95
-232 95 -238 0 -18 -18 -11 -42 18 -25 30 -198 418 -198 445 0 20 22 28 37 13
7 -6 55 -113 108 -238z"/>
<path d="M3578 15740 c-43 -44 -131 -81 -198 -84 -44 -1 -65 -8 -91 -27 -86
-66 -293 -149 -370 -149 -35 0 -49 -7 -86 -41 -56 -51 -114 -77 -191 -85 -50
-6 -62 -11 -73 -32 -8 -13 -33 -41 -56 -62 -24 -21 -43 -42 -43 -47 0 -5 54
-128 121 -273 129 -284 153 -353 143 -412 l-6 -38 57 0 c41 0 69 -6 97 -22 39
-22 96 -97 124 -163 12 -30 17 -34 33 -25 18 9 18 12 -7 72 -14 35 -27 89 -30
120 -4 48 0 64 21 101 15 24 38 52 52 61 30 20 32 32 4 41 -32 11 -69 77 -168
308 -101 236 -103 250 -42 282 40 20 74 19 95 -4 24 -27 372 -855 392 -933 15
-58 15 -122 -1 -159 -5 -13 4 -22 32 -35 31 -15 39 -25 41 -51 2 -18 -1 -40
-6 -49 -8 -14 -1 -23 36 -48 26 -18 59 -55 79 -87 39 -64 383 -874 383 -902 0
-13 -6 -17 -21 -15 -15 2 -28 18 -43 56 -16 41 -25 52 -41 50 -24 -4 -24 -6
11 -173 l28 -130 92 1 c86 2 94 4 135 34 73 54 199 100 274 100 24 0 34 7 52
39 13 22 36 48 52 57 l29 17 -69 140 c-53 105 -74 137 -85 133 -9 -3 -20 -6
-25 -6 -5 0 0 -24 11 -52 27 -73 26 -98 -4 -98 -13 0 -28 6 -34 13 -13 16
-325 815 -346 886 -18 61 -21 157 -6 166 18 11 10 22 -20 29 -42 8 -58 45 -41
92 12 33 11 37 -11 52 -41 29 -78 76 -108 137 -32 66 -343 854 -353 897 -17
69 101 116 144 58 11 -14 56 -122 101 -240 67 -177 81 -225 81 -272 l0 -58 49
0 c97 0 146 -38 200 -156 22 -50 39 -73 51 -74 21 0 21 -5 -3 82 -35 127 -20
202 51 263 26 21 30 28 18 36 -8 5 -17 9 -21 9 -26 0 -83 124 -179 389 l-107
294 -64 -2 c-35 -1 -75 2 -88 7 -21 8 -30 5 -52 -18z"/>
<path d="M15870 15809 c-25 -3 -63 -4 -86 -1 -72 8 -83 -9 -193 -313 -116
-321 -120 -330 -171 -380 -51 -50 -52 -81 -6 -132 64 -72 68 -96 36 -211 -11
-40 -17 -84 -14 -98 13 -50 83 -71 119 -36 9 9 34 50 54 91 46 94 68 111 162
121 41 5 75 7 77 5 7 -7 -119 -309 -145 -347 -15 -23 -48 -56 -73 -73 -43 -31
-45 -34 -45 -83 0 -44 -4 -56 -28 -78 -28 -25 -28 -28 -22 -102 5 -49 3 -93
-5 -122 -10 -37 -60 -168 -267 -697 -3 -8 -23 -13 -47 -13 -53 0 -62 -10 -155
-161 -46 -74 -71 -126 -71 -145 0 -23 15 -43 76 -99 93 -86 91 -85 139 -85 71
-1 158 -39 265 -116 25 -18 41 -23 60 -18 14 3 56 7 93 9 52 1 73 6 87 21 22
23 100 271 100 319 0 32 -13 48 -64 80 -14 9 0 49 115 320 182 432 188 443
262 499 35 26 38 31 36 72 -3 37 1 47 21 61 37 25 40 32 40 114 0 90 12 135
84 305 50 117 76 159 76 122 0 -8 14 -27 31 -44 67 -63 72 -99 32 -221 -25
-78 -26 -86 -12 -111 17 -31 56 -47 92 -38 19 4 35 24 62 75 54 102 78 121
165 131 40 4 79 14 87 23 9 9 15 39 17 88 2 72 6 84 128 354 70 154 129 290
133 302 8 30 -2 45 -82 129 -66 70 -70 72 -134 82 -72 11 -124 35 -180 82 -26
22 -52 33 -97 41 -116 18 -271 85 -355 151 -20 16 -47 24 -101 29 -76 7 -117
23 -176 69 -42 33 -61 38 -120 29z m123 -66 c54 -40 121 -63 182 -63 33 0 55
-9 96 -36 100 -69 287 -144 359 -144 18 0 50 -16 88 -45 64 -48 125 -75 176
-76 48 -1 60 -9 131 -87 52 -59 64 -78 59 -95 -3 -12 -59 -139 -124 -282 -127
-281 -140 -316 -140 -387 0 -54 -15 -68 -75 -68 -75 0 -131 -43 -180 -140 -30
-59 -48 -74 -80 -66 -36 9 -39 41 -10 125 14 41 25 88 25 104 0 39 -24 88 -60
122 -38 37 -38 64 1 101 17 16 43 54 59 84 39 78 170 386 170 401 0 21 -32 49
-55 49 -12 0 -29 -8 -37 -17 -18 -21 -343 -792 -370 -876 -10 -35 -18 -89 -18
-132 0 -71 -1 -73 -35 -99 -32 -25 -34 -30 -29 -69 5 -40 4 -44 -40 -80 -25
-21 -57 -57 -71 -81 -41 -70 -316 -729 -313 -750 2 -11 16 -23 38 -30 28 -9
36 -17 38 -39 4 -30 -63 -267 -83 -293 -8 -11 -31 -17 -71 -19 -32 -2 -70 -6
-85 -10 -19 -5 -37 2 -75 28 -83 57 -154 89 -231 102 -68 12 -76 16 -142 76
-39 35 -70 72 -71 82 0 24 21 63 96 180 l63 97 44 0 c25 0 49 6 55 13 13 17
267 671 282 727 8 28 10 72 6 116 -6 69 -6 71 24 98 28 25 31 31 25 71 -6 37
-4 46 15 62 71 57 89 76 113 121 15 27 101 240 193 473 180 460 183 471 118
477 -19 2 -36 -3 -46 -15 -30 -34 -170 -424 -175 -488 -7 -73 -15 -85 -62 -85
-93 0 -142 -36 -189 -140 -42 -93 -76 -114 -107 -67 -14 21 -13 31 7 108 26
104 21 139 -32 203 -22 26 -40 56 -40 65 0 10 14 30 31 47 50 47 72 95 174
379 53 149 103 277 111 285 15 15 158 31 199 22 11 -3 42 -20 68 -39z m77
-317 c0 -14 -185 -495 -194 -503 -10 -10 -17 42 -11 75 6 31 103 297 148 405
11 26 22 37 36 37 12 0 21 -6 21 -14z m566 -230 c9 -22 -166 -416 -203 -456
-17 -19 -34 -32 -37 -29 -6 5 165 425 195 482 12 20 37 23 45 3z"/>
<path d="M15825 15753 l-80 -4 -103 -287 c-104 -287 -141 -366 -188 -397 l-25
-16 44 -48 c58 -61 68 -112 42 -209 -28 -109 -28 -109 -11 -115 11 -4 19 0 23
11 23 66 69 145 102 175 40 36 103 55 154 45 21 -4 22 -1 22 56 1 51 14 96 84
281 46 121 93 231 105 243 40 44 136 8 136 -50 0 -34 -315 -852 -357 -928 -31
-55 -78 -107 -116 -126 -27 -14 -27 -15 -11 -45 22 -43 11 -76 -30 -96 -31
-14 -33 -19 -25 -40 14 -39 11 -113 -10 -183 -25 -88 -329 -862 -345 -878 -10
-11 -15 -10 -26 3 -11 13 -9 25 8 72 21 57 18 81 -11 70 -10 -4 -113 -159
-161 -244 -4 -7 11 -24 38 -43 25 -16 53 -44 63 -60 13 -23 25 -30 48 -30 79
0 214 -53 279 -111 34 -29 37 -30 88 -21 29 6 66 10 82 9 30 -2 30 -2 74 142
36 116 41 145 31 152 -26 16 -35 9 -54 -42 -11 -28 -25 -55 -32 -61 -18 -14
-53 0 -53 22 0 20 308 758 363 870 35 72 95 140 122 140 13 0 15 5 10 18 -21
46 -17 79 10 101 15 11 33 21 40 21 8 0 10 17 7 56 -3 31 1 82 8 113 14 63
360 892 389 931 24 33 59 36 101 8 56 -37 52 -58 -45 -284 -99 -228 -124 -274
-160 -298 l-26 -17 45 -50 c67 -74 72 -139 21 -264 -19 -45 -21 -61 -12 -67
19 -12 20 -11 55 55 58 113 117 157 212 157 l50 0 -6 39 c-9 58 13 119 146
411 66 145 120 269 120 275 0 5 -16 20 -35 32 -19 13 -44 40 -57 62 -21 37
-24 39 -84 44 -68 5 -171 53 -204 94 -11 14 -28 23 -47 23 -78 0 -282 78 -371
143 -39 28 -59 35 -114 40 -71 7 -128 30 -189 78 -20 16 -41 28 -45 27 -5 -1
-45 -4 -89 -5z"/>
<path d="M9215 12964 c-766 -32 -1339 -90 -2000 -200 -219 -36 -583 -107 -742
-144 -90 -21 -94 -23 -123 -67 -31 -45 -99 -234 -119 -329 -15 -74 -17 -2384
-2 -2479 7 -38 19 -95 27 -125 24 -84 108 -270 173 -383 32 -56 84 -151 116
-212 93 -175 234 -407 354 -580 60 -88 149 -218 197 -290 118 -176 219 -276
339 -337 50 -25 129 -62 177 -82 189 -78 532 -255 702 -363 39 -25 118 -80
176 -122 58 -43 141 -103 185 -134 105 -75 231 -183 268 -229 26 -32 30 -48
36 -120 l6 -83 724 0 723 0 70 110 c145 228 279 371 459 493 317 212 617 368
877 456 89 30 186 68 215 83 77 42 207 178 342 359 384 516 458 623 472 684 3
14 18 49 34 78 34 61 130 288 214 506 109 283 118 351 136 971 11 411 0 1004
-26 1325 -9 102 -19 235 -24 295 -8 97 -76 503 -87 514 -7 7 -287 71 -534 121
-685 139 -1349 224 -2110 271 -170 10 -1093 20 -1255 13z m817 -84 c1005 -26
1956 -144 2893 -358 l120 -27 32 -175 c18 -96 32 -202 33 -235 0 -33 4 -86 10
-118 5 -32 17 -165 27 -295 14 -191 18 -357 18 -857 0 -602 -10 -894 -36
-1039 -21 -117 -172 -521 -274 -731 -29 -60 -57 -121 -60 -135 -13 -44 -94
-169 -219 -338 -389 -526 -439 -588 -538 -655 -35 -24 -112 -56 -229 -96 -277
-94 -515 -216 -851 -437 -232 -152 -372 -297 -522 -536 l-48 -78 -663 0 -662
0 -6 51 c-11 92 -59 151 -237 292 -47 37 -122 93 -167 124 -46 32 -119 85
-164 118 -186 135 -534 324 -849 460 -304 131 -287 114 -698 715 -111 162
-222 345 -302 495 -29 55 -86 159 -126 230 -40 72 -96 182 -123 246 -92 211
-86 109 -86 1489 l0 1215 39 115 c21 63 52 136 68 162 35 53 15 47 370 118
827 167 1793 270 2648 283 85 1 173 3 195 5 22 1 205 -3 407 -8z"/>
<path d="M8123 11475 c-81 -18 -186 -73 -256 -135 -102 -92 -175 -239 -196
-396 -10 -73 -27 -1323 -22 -1634 4 -331 65 -531 201 -671 74 -76 154 -120
269 -150 74 -20 109 -20 1605 -19 1715 1 1615 -3 1771 74 147 72 253 195 308
356 l22 65 3 974 c3 1087 3 1080 -62 1218 -27 56 -55 94 -109 147 -82 81 -159
126 -274 159 l-78 22 -1560 2 c-1286 1 -1571 -1 -1622 -12z m2997 -199 c182
-5 243 -17 322 -68 97 -61 159 -157 176 -273 5 -34 6 -471 3 -1005 l-7 -945
-22 -56 c-45 -112 -143 -189 -288 -226 -64 -17 -166 -18 -1559 -18 -1393 0
-1495 1 -1559 18 -145 37 -243 114 -288 226 l-23 56 0 950 c0 995 0 998 45
1117 37 99 133 186 235 213 17 4 77 11 135 14 110 7 2542 4 2830 -3z"/>
<path d="M9575 11020 c-999 -5 -1084 -7 -1139 -24 -173 -52 -275 -142 -318
-278 -17 -56 -18 -106 -18 -716 0 -708 2 -734 54 -847 32 -71 96 -139 160
-170 113 -55 93 -55 1339 -55 754 0 1181 4 1244 11 281 31 426 147 462 369 17
103 14 1235 -3 1330 -39 214 -133 324 -311 366 -90 21 -151 22 -1470 14z
m1045 -345 c30 -15 71 -40 91 -56 l37 -29 22 60 c21 57 24 60 56 60 42 0 41 2
49 -275 3 -115 8 -234 11 -262 l6 -53 -41 0 c-25 0 -43 5 -45 13 -2 6 -16 57
-31 112 -32 116 -75 209 -122 264 -87 102 -227 108 -314 13 -87 -93 -126 -235
-136 -492 -13 -352 56 -574 202 -645 49 -24 64 -27 123 -23 110 8 176 59 236
183 26 53 66 194 66 231 0 2 19 4 41 4 l42 0 -6 -62 c-20 -203 -123 -378 -262
-448 -44 -22 -63 -25 -155 -25 -100 0 -108 2 -175 35 -177 89 -302 306 -324
563 -29 341 90 671 290 804 105 69 236 81 339 28z m-1714 -40 c7 -22 51 -170
98 -330 48 -159 97 -324 110 -365 12 -41 36 -121 51 -178 16 -56 32 -99 36
-95 5 7 191 674 246 883 7 30 18 72 24 93 l10 37 199 0 200 0 0 -55 0 -55 -59
0 c-33 0 -71 -4 -85 -10 l-26 -10 0 -568 c0 -428 3 -571 12 -580 7 -7 42 -12
85 -12 l73 0 0 -55 0 -55 -266 0 -265 0 3 53 3 52 70 3 c38 2 75 8 82 14 10 8
13 115 13 516 0 278 -3 503 -6 500 -6 -6 -75 -253 -160 -573 -25 -93 -49 -183
-54 -200 -6 -16 -24 -82 -41 -145 -63 -237 -55 -220 -100 -220 -21 0 -39 2
-39 5 0 6 -294 1000 -323 1090 l-22 70 -3 -90 c-2 -49 -2 -263 0 -475 2 -303
6 -390 17 -410 25 -45 54 -70 90 -76 71 -12 71 -12 71 -65 l0 -49 -221 0 -220
0 3 52 3 53 42 7 c57 9 80 23 100 61 16 29 18 78 21 565 l3 532 -26 10 c-15 6
-53 10 -86 10 l-59 0 0 55 0 55 192 -2 192 -3 12 -40z"/>
<path d="M13391 12480 c-10 -5 0 -70 43 -282 63 -312 109 -582 132 -778 21
-180 32 -1462 15 -1663 -29 -322 -120 -625 -301 -1004 -123 -257 -263 -475
-472 -735 -135 -168 -216 -237 -483 -414 -239 -158 -369 -228 -530 -285 -361
-127 -435 -166 -592 -307 -221 -199 -286 -280 -382 -469 -99 -198 -234 -546
-218 -562 16 -16 282 -15 295 2 5 6 31 64 57 127 59 146 152 331 211 423 158
245 305 353 746 550 529 238 842 432 1077 668 156 157 263 320 479 734 281
535 373 829 427 1348 12 120 33 567 35 742 0 34 20 -3 139 -265 76 -167 144
-306 151 -308 7 -3 91 74 187 169 97 96 173 167 171 159 -8 -22 -202 -638
-323 -1024 -111 -352 -113 -363 -60 -351 27 7 381 65 391 65 4 0 3 -5 -4 -12
-7 -7 -12 -20 -12 -29 0 -9 -238 -247 -530 -529 -291 -282 -530 -520 -530
-529 0 -14 38 -26 203 -65 111 -27 205 -51 209 -55 4 -4 -267 -121 -603 -261
-336 -140 -613 -261 -616 -268 -3 -7 -2 -17 3 -22 5 -5 113 -32 239 -61 127
-28 233 -54 237 -58 4 -3 -302 -121 -680 -261 -472 -176 -688 -261 -690 -271
-2 -12 94 -57 394 -185 219 -93 391 -170 383 -171 -8 -2 -201 -14 -429 -28
-228 -14 -419 -30 -425 -36 -6 -6 42 -112 138 -305 82 -163 147 -298 145 -299
-2 -2 -93 23 -203 56 -109 32 -204 59 -211 59 -31 0 -33 -26 -12 -148 l22
-122 81 -40 c99 -47 178 -127 230 -231 104 -205 81 -389 -70 -572 -51 -62
-190 -167 -220 -167 -8 0 -17 15 -20 38 -10 55 -43 178 -60 218 -23 56 -99
129 -168 160 -55 26 -73 29 -162 29 -93 0 -105 -2 -165 -32 -69 -34 -150 -102
-150 -124 0 -8 26 -28 58 -46 193 -106 314 -320 351 -623 16 -121 13 -372 -3
-451 -8 -36 -37 -112 -65 -168 -86 -169 -103 -233 -108 -401 -3 -80 -10 -153
-15 -163 -7 -15 -17 -16 -57 -11 -56 7 -110 -7 -137 -37 -16 -18 -19 -38 -19
-143 0 -117 -1 -124 -32 -186 -18 -36 -64 -105 -104 -155 -39 -49 -88 -115
-109 -146 -23 -33 -60 -69 -88 -88 -28 -17 -53 -42 -56 -54 -3 -12 -6 -63 -6
-113 0 -96 7 -114 47 -114 13 0 236 -47 495 -105 289 -64 476 -101 481 -96 6
6 -22 228 -72 571 -45 309 -81 564 -79 566 2 2 157 -238 343 -533 187 -295
348 -541 357 -547 11 -7 21 -7 27 -1 6 6 103 263 218 573 114 309 212 562 218
562 5 0 129 -97 273 -215 145 -118 270 -215 277 -215 8 0 16 4 19 8 2 4 -2
192 -9 417 -8 226 -15 435 -15 466 l0 57 437 -194 c240 -107 442 -194 449
-194 7 0 15 4 18 8 2 4 -55 216 -128 470 -123 424 -132 461 -112 456 11 -3
235 -72 496 -153 261 -81 481 -146 488 -143 6 2 12 9 12 14 0 5 -65 114 -144
241 -79 128 -169 277 -201 331 -31 54 -99 162 -151 240 -81 121 -92 142 -77
148 10 3 330 19 711 34 381 16 698 31 704 35 8 5 9 14 2 28 -5 11 -201 159
-437 330 -235 170 -424 312 -420 314 5 2 282 98 616 213 544 187 607 211 605
228 -3 22 -2 22 -551 329 l-348 195 590 383 c371 241 591 390 591 400 0 24
-94 29 -564 29 -266 0 -407 3 -400 10 5 5 367 226 804 490 437 265 801 487
808 494 7 7 10 19 7 28 -9 23 -108 28 -613 28 -375 0 -453 2 -449 13 3 8 203
358 446 779 242 422 446 778 453 792 29 65 -3 52 -436 -184 -235 -128 -430
-229 -433 -226 -4 4 -15 338 -24 744 -10 405 -18 738 -18 740 -1 1 -9 2 -19 2
-13 0 -62 -87 -192 -340 -96 -187 -177 -340 -180 -340 -4 0 -77 210 -164 468
-391 1159 -474 1397 -490 1400 -9 2 -18 -2 -21 -10 -2 -7 -22 -170 -45 -363
-54 -473 -45 -434 -85 -341 -78 180 -349 585 -511 765 -127 142 -352 307 -560
414 -136 69 -157 77 -173 67z m1673 -2691 c57 -122 85 -193 79 -197 -15 -9
-513 -65 -520 -59 -5 6 338 447 347 447 3 0 45 -86 94 -191z m169 -1154 c111
-74 199 -135 196 -135 -3 0 -264 -67 -579 -149 -316 -83 -575 -149 -577 -148
-2 2 748 566 755 567 1 0 93 -61 205 -135z m-385 -1061 c68 -86 122 -157 120
-159 -3 -3 -1152 -64 -1155 -61 -3 3 891 374 902 375 6 0 66 -70 133 -155z
m-304 -831 c55 -279 68 -354 65 -357 -6 -5 -1769 138 -1763 143 3 4 1632 236
1681 240 6 1 14 -11 17 -26z m-1351 -1009 l807 -118 -1 -120 c-1 -67 -4 -191
-8 -277 l-6 -156 -820 394 c-450 217 -822 397 -825 400 -3 3 6 3 20 0 14 -3
388 -58 833 -123z m-376 -903 c354 -139 639 -256 641 -263 3 -19 -141 -490
-151 -489 -8 0 -1141 1001 -1133 1001 2 0 291 -112 643 -249z m-531 -1101
c308 -198 560 -364 561 -368 3 -8 -287 -376 -291 -371 -2 2 -186 245 -411 539
-224 294 -415 544 -424 554 -20 25 -77 60 565 -354z"/>
<path d="M5825 12397 c-83 -45 -146 -89 -240 -167 -134 -111 -348 -329 -422
-430 -143 -192 -333 -531 -419 -747 -16 -40 -31 -73 -34 -73 -3 0 -25 179 -48
397 -25 226 -48 401 -54 405 -6 3 -16 4 -22 2 -8 -4 -502 -1347 -640 -1742
-27 -77 -4 -108 -206 271 -116 216 -158 287 -172 287 -17 0 -18 -28 -18 -726
l0 -726 -43 26 c-23 15 -64 39 -91 54 -26 15 -185 105 -352 200 -167 95 -308
171 -314 167 -5 -3 -10 -12 -10 -19 0 -8 196 -346 436 -752 240 -407 438 -744
441 -751 3 -8 -127 -12 -511 -15 -556 -3 -570 -5 -515 -51 14 -12 372 -236
795 -497 l770 -475 -440 -3 c-448 -2 -455 -3 -456 -39 0 -6 250 -170 555 -365
305 -194 555 -355 555 -358 0 -3 -12 -12 -28 -21 -15 -9 -211 -131 -437 -271
-291 -181 -411 -261 -413 -275 -3 -18 61 -43 570 -228 315 -114 579 -211 586
-214 7 -4 -143 -121 -382 -296 -427 -313 -442 -328 -353 -339 43 -5 1251 -57
1321 -56 28 0 37 -4 33 -14 -3 -7 -136 -217 -297 -466 -160 -249 -289 -459
-286 -466 3 -8 11 -14 18 -14 7 0 222 70 478 154 256 85 466 153 467 152 2 -1
-56 -208 -129 -459 -97 -338 -129 -460 -120 -469 8 -8 128 43 458 196 245 114
448 205 450 203 2 -1 -3 -181 -11 -398 -20 -542 -20 -569 4 -569 11 0 129 92
262 205 134 112 247 201 250 197 3 -4 106 -258 229 -565 173 -434 226 -557
239 -555 8 2 184 260 391 575 206 314 376 570 378 569 1 -2 -43 -267 -99 -589
-76 -440 -99 -590 -90 -600 9 -11 27 -11 108 4 138 24 290 46 488 69 241 28
322 41 341 54 13 10 18 36 22 127 6 153 -8 201 -85 292 -106 126 -153 188
-198 265 -44 76 -45 78 -45 169 0 100 -18 166 -51 183 -10 6 -43 10 -73 10
-80 0 -86 13 -85 170 1 148 -11 194 -101 388 -116 248 -124 395 -44 806 43
224 56 377 52 626 l-3 195 -135 6 c-74 4 -154 7 -178 8 l-42 1 195 234 c107
129 195 241 195 250 0 9 -8 16 -18 16 -9 0 -123 -74 -251 -165 -128 -91 -236
-164 -238 -161 -3 2 26 111 63 241 45 160 64 239 57 246 -7 7 -84 -9 -239 -49
-126 -33 -230 -59 -231 -58 -1 1 68 134 153 296 84 162 153 302 151 310 -2 13
-67 16 -492 20 l-490 5 414 175 c227 96 420 179 427 185 8 5 10 15 6 21 -4 6
-306 126 -672 268 -366 142 -671 261 -678 265 -7 4 101 25 240 47 227 35 253
41 253 58 0 15 -117 70 -622 290 -343 149 -619 273 -615 277 6 5 403 79 425
79 37 0 -52 95 -554 586 -309 302 -555 550 -548 551 8 2 115 -8 239 -21 168
-18 228 -21 236 -12 9 8 -41 174 -197 660 -116 357 -208 653 -207 657 2 4 69
-55 151 -133 81 -77 153 -138 160 -135 6 3 80 127 162 277 l150 273 7 -154
c24 -518 31 -628 48 -765 50 -387 117 -603 331 -1056 151 -322 254 -485 450
-713 336 -393 547 -542 1054 -746 230 -92 348 -157 531 -294 207 -156 362
-343 479 -581 41 -83 84 -159 95 -169 20 -18 22 -18 58 -1 52 24 112 66 122
86 12 23 -48 198 -107 313 -156 302 -428 515 -994 778 -288 134 -368 180 -569
330 -363 270 -700 679 -916 1114 -209 422 -318 846 -355 1381 -13 193 -6 922
11 1124 35 428 80 688 175 1016 25 86 44 163 41 171 -8 20 -25 16 -91 -20z
m-1210 -2630 c103 -120 185 -220 183 -222 -2 -2 -130 11 -283 30 -154 19 -284
35 -288 35 -14 0 -7 16 91 209 52 101 97 179 101 175 5 -5 92 -107 196 -227z
m116 -1278 c187 -155 338 -283 336 -285 -4 -5 -1049 295 -1057 302 -3 3 2 9
10 14 8 5 89 63 180 129 91 66 171 120 178 120 7 1 165 -126 353 -280z m382
-934 l406 -170 -82 -2 c-45 -2 -299 0 -565 5 l-483 7 141 172 c114 140 144
171 159 165 10 -4 201 -83 424 -177z m1447 -1027 c6 -2 -387 -39 -875 -82
-487 -43 -888 -76 -891 -73 -4 4 31 168 81 382 4 21 22 18 839 -101 459 -67
839 -123 846 -126z m410 -673 c-47 -24 -427 -219 -845 -434 l-760 -390 -6 57
c-4 31 -7 162 -8 290 -1 179 2 232 12 232 6 0 381 65 832 144 451 80 829 144
840 145 11 0 -18 -20 -65 -44z m330 -699 c0 -4 -1166 -1096 -1216 -1138 -20
-18 -21 -16 -98 263 -43 155 -74 285 -69 290 6 6 1369 587 1381 589 1 0 2 -2
2 -4z m538 -938 c-14 -18 -199 -274 -412 -568 -214 -294 -396 -543 -405 -552
-15 -16 -27 -5 -179 157 -89 96 -164 180 -167 187 -3 8 217 162 587 411 325
218 593 397 596 397 2 0 -7 -15 -20 -32z"/>
<path d="M8893 6373 c-5 -12 4 -24 28 -42 59 -44 107 -98 119 -137 15 -44 9
-49 -61 -58 -116 -16 -279 -87 -279 -122 0 -7 18 -23 41 -34 23 -12 39 -23 37
-25 -1 -2 -51 -19 -110 -38 -139 -45 -227 -95 -312 -178 -59 -58 -67 -70 -56
-83 8 -11 30 -16 64 -16 53 0 121 -26 121 -47 0 -6 -53 -57 -117 -112 -115
-99 -188 -187 -249 -297 -31 -58 -21 -67 57 -52 40 7 80 8 120 2 67 -10 62 9
48 -159 -7 -100 4 -194 36 -298 26 -85 43 -87 100 -12 23 30 58 69 77 86 l35
30 27 -78 c34 -104 79 -175 176 -284 125 -141 152 -178 167 -233 18 -64 38
-69 62 -16 18 42 96 110 126 110 45 0 133 -89 193 -196 17 -31 37 -59 44 -61
7 -3 21 14 33 36 24 48 84 111 106 111 8 0 28 -7 44 -15 29 -15 33 -25 70
-155 11 -40 32 -29 70 38 47 83 84 129 121 148 49 25 59 14 59 -66 0 -78 12
-109 59 -154 43 -41 57 -30 64 51 6 77 66 292 102 368 l23 50 1 -50 c2 -113
74 -275 122 -275 19 0 25 18 35 121 3 36 10 72 14 79 15 24 57 1 95 -50 41
-56 62 -63 71 -22 13 58 17 69 52 146 l36 79 -34 26 c-120 89 -340 329 -381
416 -31 64 -40 145 -16 145 7 0 43 -22 81 -50 79 -57 144 -80 231 -80 139 0
238 61 375 231 47 59 126 147 176 195 103 102 136 159 138 238 1 70 -36 132
-110 185 -108 78 -138 84 -414 91 -289 8 -285 6 -564 150 -223 116 -566 273
-688 315 -129 45 -239 65 -359 65 -84 0 -101 -3 -106 -17z m1964 -844 c75 -23
68 -62 -30 -166 -89 -94 -141 -133 -179 -133 -33 0 -33 0 -8 50 26 51 26 55
-10 87 -36 32 -37 39 -5 47 31 8 44 51 22 73 -8 9 -39 22 -67 29 -86 22 -141
-12 -164 -103 l-12 -48 -48 -3 c-136 -9 -426 76 -498 145 -16 15 -28 31 -28
35 0 12 986 -1 1027 -13z"/>
<path d="M11240 5440 c-120 -26 -210 -97 -357 -287 -53 -69 -120 -143 -148
-164 -92 -70 -204 -110 -343 -124 -39 -4 -75 -11 -77 -16 -9 -14 43 -111 92
-171 40 -50 161 -164 366 -347 85 -75 174 -121 234 -121 51 0 113 28 113 50 0
10 -25 33 -59 54 -126 77 -243 221 -281 344 -29 92 -26 105 23 147 106 93 279
142 462 132 230 -13 362 -99 388 -254 8 -48 15 -63 28 -63 9 0 53 39 98 86
105 109 136 170 135 269 0 91 -26 147 -101 226 -158 166 -412 272 -573 239z"/>
<path d="M8474 4484 c-36 -54 -114 -125 -162 -147 -29 -13 -64 -81 -88 -168
-13 -45 -18 -99 -18 -184 1 -148 20 -235 99 -436 31 -79 63 -164 70 -189 18
-59 35 -197 35 -282 0 -62 2 -68 21 -68 11 0 55 25 96 55 83 61 98 66 89 33
-3 -13 -10 -91 -16 -174 -5 -83 -12 -181 -16 -218 -8 -80 3 -101 43 -83 23 10
28 8 50 -18 28 -34 89 -134 133 -217 17 -32 34 -58 39 -58 6 0 19 14 31 30 12
17 27 30 35 30 7 0 32 -16 55 -35 49 -41 67 -35 72 23 3 32 7 37 30 40 20 2
38 -7 72 -39 56 -51 76 -47 76 13 0 91 30 89 94 -6 31 -46 41 -55 52 -45 8 6
14 18 14 25 0 8 53 72 118 142 160 173 170 185 188 248 26 91 11 148 -101 369
-110 218 -124 272 -82 300 49 32 136 -8 250 -115 36 -33 70 -74 77 -90 20 -47
7 -109 -46 -221 -43 -93 -48 -112 -49 -174 0 -133 40 -193 179 -259 86 -42
121 -83 134 -157 11 -65 37 -60 67 15 13 33 31 67 40 75 15 15 18 14 35 -7 11
-13 24 -50 31 -82 16 -81 32 -83 69 -9 45 88 71 90 86 6 8 -53 29 -57 65 -13
38 45 61 46 88 1 11 -19 27 -35 35 -35 19 0 102 94 144 164 19 30 50 92 70
138 36 81 37 86 37 203 -1 89 -6 140 -22 198 -15 54 -17 77 -9 77 18 0 72 -53
90 -88 9 -18 23 -32 31 -32 16 0 23 23 56 175 24 111 39 146 112 254 93 139
102 165 105 336 2 103 -1 164 -10 194 -13 42 -16 44 -78 66 -115 38 -216 99
-336 201 -35 30 -70 54 -78 54 -7 0 -47 -39 -87 -87 -79 -95 -117 -133 -136
-133 -7 0 -27 13 -46 29 -18 16 -38 27 -44 23 -5 -4 -13 -50 -16 -103 -7 -108
-20 -147 -53 -155 -37 -9 -61 13 -94 84 -55 120 -58 122 -96 55 -86 -153 -108
-186 -137 -204 -18 -10 -41 -19 -51 -19 -21 0 -98 78 -122 123 -8 15 -20 27
-26 27 -7 0 -38 -25 -69 -56 -49 -48 -61 -56 -83 -50 -28 7 -52 47 -80 134
-10 29 -24 52 -31 52 -8 0 -29 -21 -47 -47 -48 -70 -76 -93 -114 -93 -45 0
-92 43 -133 120 -18 33 -38 60 -46 60 -8 0 -34 -32 -59 -70 -58 -89 -98 -112
-150 -88 -18 9 -46 34 -60 55 -56 79 -249 382 -308 481 -33 56 -64 102 -69
102 -4 0 -25 -25 -45 -56z"/>
<path d="M9473 2289 l-223 -201 0 -93 c0 -81 2 -94 18 -99 9 -2 206 -2 437 2
l420 7 3 86 3 87 -211 203 c-115 112 -213 205 -218 206 -4 2 -107 -88 -229
-198z"/>
<path d="M8910 2047 l0 -303 -137 -48 c-187 -65 -251 -81 -438 -110 -309 -48
-452 -120 -510 -259 -21 -50 -19 -77 4 -77 10 0 24 6 30 14 18 21 104 39 151
31 22 -4 56 -18 75 -31 49 -33 61 -30 84 15 38 74 122 121 194 107 23 -4 47
-20 71 -46 20 -22 40 -40 45 -40 4 0 21 20 36 44 71 113 226 114 307 2 16 -22
35 -41 41 -41 6 0 28 29 48 65 43 77 66 86 100 41 13 -17 30 -31 38 -31 9 0
30 27 50 65 48 95 75 110 186 110 103 0 109 6 80 81 -20 52 -70 99 -125 115
l-40 12 0 182 0 183 -47 38 c-26 22 -84 72 -128 112 -44 39 -87 72 -97 72 -17
0 -18 -19 -18 -303z"/>
<path d="M10275 2286 c-118 -90 -110 -67 -112 -309 l-3 -210 -67 -38 c-102
-56 -186 -150 -158 -177 4 -4 50 -6 102 -5 119 3 160 -14 192 -80 12 -24 21
-53 21 -65 0 -35 31 -27 74 18 21 23 44 39 50 37 6 -2 13 -36 16 -77 7 -104
22 -110 93 -37 115 119 212 126 345 26 l54 -41 38 21 c23 13 55 21 82 21 58 0
144 -42 164 -81 18 -35 32 -36 80 -4 62 42 180 29 235 -26 24 -24 49 -19 49 9
0 55 -52 131 -113 166 -42 24 -308 106 -512 156 -60 15 -162 43 -225 62 -63
20 -138 41 -167 48 -28 6 -58 19 -67 29 -32 35 -47 132 -56 356 -8 222 -13
255 -34 255 -6 0 -42 -24 -81 -54z"/>
<path d="M9249 1500 c-41 -22 -139 -107 -139 -122 0 -10 246 -311 306 -375 30
-32 37 -35 48 -22 12 12 11 36 -5 159 -29 221 -54 325 -87 363 -20 22 -77 21
-123 -3z"/>
<path d="M9955 1476 c-8 -19 -19 -65 -25 -103 -9 -62 -30 -311 -30 -355 0 -34
35 -17 71 35 20 29 85 105 143 170 l107 118 -25 43 c-28 48 -80 88 -145 111
-65 23 -80 20 -96 -19z"/>
<path d="M8598 1347 c-21 -7 -47 -20 -57 -29 -20 -17 -19 -18 5 -96 13 -44 48
-149 78 -233 42 -120 58 -155 72 -157 17 -2 22 14 47 150 16 84 38 192 49 240
24 101 21 110 -47 127 -54 14 -99 13 -147 -2z"/>
<path d="M10545 1345 c-22 -9 -43 -19 -48 -24 -14 -14 70 -357 113 -456 15
-34 23 -42 38 -38 14 3 23 22 36 81 9 42 43 144 76 225 33 81 60 154 60 161 0
7 -19 23 -42 36 -54 30 -173 38 -233 15z"/>
<path d="M8220 1266 c-27 -13 -46 -30 -47 -42 -2 -10 11 -57 27 -104 34 -93
72 -211 119 -365 55 -182 74 -179 108 17 45 259 54 331 51 402 l-3 71 -45 23
c-61 30 -148 30 -210 -2z"/>
<path d="M10906 1266 c-21 -8 -43 -19 -48 -24 -6 -6 2 -55 21 -133 17 -68 42
-187 54 -264 21 -126 25 -140 44 -143 18 -3 25 9 52 84 18 48 46 137 63 198
16 61 41 135 54 164 13 30 24 60 24 67 0 18 -104 55 -169 61 -36 3 -70 -1 -95
-10z"/>
<path d="M7865 1202 c-22 -11 -49 -29 -59 -41 -19 -21 -19 -23 -2 -79 22 -67
43 -111 143 -292 41 -74 78 -142 82 -150 14 -26 36 -16 43 20 10 48 48 416 48
462 0 33 -5 41 -41 65 -55 36 -154 43 -214 15z"/>
<path d="M11274 1191 c-23 -10 -44 -27 -48 -37 -4 -11 -10 -82 -13 -159 -6
-144 3 -235 33 -327 25 -77 40 -65 116 90 36 75 96 182 132 236 36 55 66 103
66 107 0 18 -89 81 -134 94 -65 20 -102 19 -152 -4z"/>
</g>
</svg>
